<svg width="59" height="59" viewBox="0 0 59 59" fill="none" xmlns="http://www.w3.org/2000/svg">
<path d="M2.23273 0.418129C1.6359 0.613014 0.612761 1.66051 0.430058 2.2817C0.210814 3.01251 0.210814 55.972 0.430058 56.7028C0.624941 57.3727 1.6359 58.3837 2.30581 58.5786C3.01226 58.7857 30.6613 58.7857 31.3678 58.5786C31.9646 58.3959 32.8294 57.6529 33.1217 57.0561C33.3288 56.6419 33.3531 56.1791 33.414 52.2692L33.4749 47.9453L34.5468 47.8478C35.8988 47.726 38.0791 47.1779 39.4798 46.5933C44.4371 44.547 48.3713 40.3083 50.0157 35.217C50.6856 33.1829 50.8926 31.7943 50.8926 29.4923C50.8926 26.4716 50.3323 23.9746 49.0656 21.3924C46.3251 15.7652 40.5151 11.6726 34.5103 11.1367L33.4749 11.0393L33.414 6.71529C33.3531 2.80545 33.3288 2.3426 33.1217 1.92847C32.8294 1.33165 31.9646 0.588654 31.3678 0.405949C30.71 0.211067 2.8661 0.223248 2.23273 0.418129ZM5.64318 3.30484C5.95987 4.59594 6.36182 5.21713 7.19007 5.70434L7.77472 6.04538H16.849H25.9232L26.4713 5.74088C27.2996 5.27803 27.7381 4.60812 28.0548 3.31702L28.3227 2.20862H29.6016C30.7831 2.20862 30.8927 2.23298 31.1729 2.51313L31.4652 2.80545L31.4408 6.92236L31.4043 11.0393L30.5395 11.1123C27.6284 11.3803 24.7052 12.4278 22.0743 14.1818C20.5274 15.1927 18.1157 17.5922 17.1048 19.1269C15.6675 21.295 14.6931 23.7189 14.218 26.2645C13.9014 27.9454 13.9014 31.0392 14.218 32.72C15.0585 37.2876 17.5067 41.2949 21.1486 44.1207C23.9622 46.3009 27.5188 47.6773 30.978 47.9209L31.4043 47.9453L31.4408 52.0622L31.4652 56.1791L31.1729 56.4714L30.8684 56.7759H16.849H2.82956L2.53723 56.4714L2.23273 56.1791V29.4923V2.80545L2.53723 2.51313C2.8052 2.23298 2.91482 2.20862 4.0963 2.20862H5.37522L5.64318 3.30484ZM26.1546 2.90289C26.045 3.34138 25.8501 3.71896 25.6674 3.87731L25.3629 4.15745H16.849H8.33501L8.0305 3.87731C7.8478 3.71896 7.65292 3.34138 7.54329 2.90289L7.37277 2.20862H16.849H26.3252L26.1546 2.90289ZM33.6698 13.2317C34.8026 13.8164 35.9597 15.1805 36.8367 17.0076C37.4335 18.2378 37.9329 19.6628 37.8111 19.7846C37.6649 19.9308 35.4238 20.4667 34.3641 20.6007C33.0852 20.7591 31.7941 20.7591 30.4908 20.6007C29.4433 20.4667 27.2143 19.9308 27.056 19.7725C26.8489 19.5532 28.0669 16.7152 28.9074 15.485C29.8331 14.1209 30.5639 13.4631 31.5505 13.0977C32.1229 12.8907 33.1095 12.9516 33.6698 13.2317ZM27.7259 13.8042C27.6772 13.8894 27.4336 14.267 27.19 14.6324C26.6053 15.5216 25.838 17.0563 25.4969 18.0429C25.3386 18.4814 25.1802 18.8711 25.1437 18.9199C24.9975 19.0904 21.855 17.0685 21.8428 16.8127C21.8428 16.7761 22.3057 16.4107 22.8782 15.9966C24.6078 14.7664 28.1278 13.183 27.7259 13.8042ZM38.6515 14.1574C39.1509 14.3645 39.9183 14.7177 40.3568 14.9613C41.2215 15.4363 43.0364 16.6909 43.0364 16.8127C43.0364 17.0563 39.8817 19.0782 39.7477 18.932C39.699 18.8711 39.5407 18.4814 39.3823 18.0429C39.0413 17.0563 38.2739 15.5216 37.6893 14.6324C37.4457 14.267 37.2021 13.8894 37.1412 13.792C37.0072 13.5727 37.4213 13.6702 38.6515 14.1574ZM22.123 19.4801C22.598 19.809 23.341 20.2597 23.7673 20.4789C24.1814 20.686 24.5469 20.9052 24.5712 20.9539C24.5956 20.9905 24.5103 21.5142 24.3885 22.1232C24.1205 23.4143 23.8404 25.6677 23.7308 27.3242L23.6455 28.5179H19.7844H15.9233L16.0207 27.58C16.3618 24.3766 17.9695 20.7591 19.9915 18.6275L20.4178 18.1769L20.8319 18.5301C21.0511 18.725 21.6358 19.1513 22.123 19.4801ZM45.716 19.6263C47.4335 21.9649 48.5662 24.8151 48.8585 27.58L48.956 28.5179H45.0827C41.4286 28.5179 41.2094 28.5057 41.2094 28.2986C41.2094 26.9222 40.5638 21.8796 40.2959 21.1854C40.235 21.0392 40.4055 20.8809 41.051 20.5276C42.0863 19.9552 43.9012 18.7372 44.1935 18.4083C44.4128 18.1647 44.4249 18.1647 44.7782 18.4935C44.9731 18.6884 45.3872 19.1878 45.716 19.6263ZM28.1157 22.1232C31.2094 22.8662 33.9134 22.8541 37.0072 22.0623C37.7502 21.8796 38.3836 21.7578 38.4323 21.8066C38.6272 22.0014 39.2605 26.8857 39.2605 28.2864C39.2605 28.5057 39.0048 28.5179 32.4396 28.5179C25.8745 28.5179 25.6187 28.5057 25.6187 28.2864C25.6187 26.9953 26.2277 22.1111 26.4348 21.7822C26.4713 21.7213 26.5809 21.7213 26.7028 21.7578C26.8124 21.8066 27.4457 21.9649 28.1157 22.1232ZM23.7308 31.6482C23.8404 33.3169 24.1205 35.5702 24.3885 36.8613C24.5103 37.4581 24.5956 37.994 24.5712 38.0306C24.5469 38.0793 24.1814 38.2986 23.7673 38.5056C22.8782 38.9685 21.4165 39.9429 20.8319 40.4545L20.4178 40.8077L19.9915 40.357C17.9695 38.2255 16.3618 34.608 16.0207 31.4046L15.9233 30.4667H19.7844H23.6455L23.7308 31.6482ZM39.2605 30.6981C39.2605 32.0988 38.6272 36.9831 38.4323 37.178C38.3836 37.2267 37.7502 37.1049 37.0072 36.9222C33.8282 36.1183 31.0511 36.1183 27.872 36.9222C27.1412 37.1049 26.4957 37.2267 26.447 37.178C26.2521 36.9831 25.6187 32.0988 25.6187 30.6981C25.6187 30.4789 25.8745 30.4667 32.4396 30.4667C39.0048 30.4667 39.2605 30.4789 39.2605 30.6981ZM48.8585 31.4046C48.5175 34.608 46.9097 38.2255 44.8878 40.357L44.4615 40.8077L44.0474 40.4545C43.5114 39.9794 42.0742 39.0294 41.051 38.4569C40.4055 38.1037 40.235 37.9453 40.2959 37.7992C40.5638 37.1049 41.2094 32.0623 41.2094 30.6859C41.2094 30.4789 41.4286 30.4667 45.0827 30.4667H48.956L48.8585 31.4046ZM34.4737 38.396C35.4116 38.5178 37.0194 38.8954 37.6162 39.1146L37.9207 39.2243L37.5431 40.2961C36.386 43.5726 34.5468 45.765 32.7685 46.0086C31.1729 46.2279 29.4311 44.7784 28.1035 42.0988C27.5432 40.9538 26.9464 39.3582 27.0316 39.2243C27.1047 39.0903 28.9926 38.6031 30.0645 38.4447C31.2947 38.2498 33.2435 38.2255 34.4737 38.396ZM25.4969 40.9417C25.838 41.9283 26.6053 43.463 27.19 44.3521C27.4336 44.7175 27.6772 45.0951 27.7381 45.1925C27.8233 45.3265 27.7746 45.3387 27.4945 45.2778C26.7758 45.0951 25.2898 44.4496 24.3398 43.9014C23.341 43.329 21.8428 42.2815 21.8428 42.1719C21.855 41.9161 24.9975 39.9063 25.1437 40.0647C25.1802 40.1134 25.3386 40.5032 25.4969 40.9417ZM42.0985 41.4045C42.6101 41.7699 43.0364 42.111 43.0364 42.1597C43.0364 42.3302 41.051 43.6578 39.9426 44.2303C38.8221 44.7906 37.2264 45.3996 37.129 45.3022C37.0925 45.2778 37.263 44.9855 37.4944 44.6688C38.2252 43.6335 39.09 41.8552 39.6868 40.1134C39.7599 39.9063 40.7222 40.4179 42.0985 41.4045Z" fill="#878787"/>
<path d="M4.17969 53.8527V54.8271H5.1541H6.12852V53.8527V52.8783H5.1541H4.17969V53.8527Z" fill="#878787"/>
<path d="M8.07812 53.8527V54.8271H16.8479H25.6176V53.8527V52.8783H16.8479H8.07812V53.8527Z" fill="#878787"/>
<path d="M27.5664 53.8527V54.8271H28.5408H29.5152V53.8527V52.8783H28.5408H27.5664V53.8527Z" fill="#878787"/>
<path d="M37.8583 5.52169C37.6025 6.45957 37.3954 7.31218 37.3832 7.40963C37.3711 7.54361 37.6147 7.66541 38.1628 7.82375C38.6013 7.94555 39.0154 8.043 39.0763 8.05518C39.1494 8.05518 39.4173 7.27564 39.6609 6.31341C40.1116 4.62036 40.1725 4.27931 40.0507 4.27931C40.0142 4.27931 39.6122 4.16969 39.1494 4.04789L38.3211 3.81647L37.8583 5.52169Z" fill="url(#paint0_linear_60_5676)"/>
<path d="M44.2454 7.10502C43.9653 7.59223 43.5268 8.3474 43.271 8.78589L42.8203 9.5776L43.4415 9.96737C44.0749 10.3693 44.489 10.552 44.5499 10.4668C44.5743 10.4546 45.0006 9.71159 45.5121 8.82243C46.1699 7.66531 46.3891 7.19028 46.2917 7.10502C46.2064 7.04412 45.8288 6.82488 45.4512 6.60563L44.757 6.21587L44.2454 7.10502Z" fill="url(#paint1_linear_60_5676)"/>
<path d="M48.9414 11.5876L47.6016 12.9274L48.308 13.6217L49.0023 14.3281L50.3665 12.9639L51.7428 11.5876L51.0729 10.9177C50.7075 10.5523 50.3786 10.2478 50.3421 10.2478C50.3056 10.2478 49.6722 10.8568 48.9414 11.5876Z" fill="url(#paint2_linear_60_5676)"/>
<path d="M53.0575 16.4473C52.1683 16.9589 51.4375 17.4218 51.4375 17.4827C51.4375 17.5436 51.6446 17.9455 51.8882 18.3596L52.3388 19.1392L52.8869 18.8103C53.2036 18.6398 53.9588 18.2013 54.58 17.8359L55.7006 17.1781L55.3717 16.5691C54.7018 15.3877 54.8723 15.3998 53.0575 16.4473Z" fill="url(#paint3_linear_60_5676)"/>
<path d="M55.5209 22.2819C54.6561 22.5255 53.9131 22.7325 53.8887 22.7447C53.8278 22.7934 54.2541 24.4134 54.3516 24.523C54.4125 24.5961 58.0056 23.7191 58.0909 23.6095C58.1031 23.5973 57.9935 23.1832 57.8717 22.696C57.5793 21.6485 57.7255 21.6729 55.5209 22.2819Z" fill="url(#paint4_linear_60_5676)"/>
<path d="M54.8516 29.4924V30.4668H56.8004H58.7492V29.4924V28.518H56.8004H54.8516V29.4924Z" fill="url(#paint5_linear_60_5676)"/>
<path d="M54.3002 34.5102C54.1297 35.0583 53.8495 36.2033 53.8861 36.2398C53.9957 36.3251 57.5401 37.202 57.5767 37.1533C57.6497 37.0802 58.137 35.3385 58.0761 35.3385C58.0517 35.3385 57.2234 35.1192 56.2368 34.8513C55.2381 34.5833 54.4098 34.3641 54.3976 34.3641C54.3733 34.3641 54.3367 34.4371 54.3002 34.5102Z" fill="url(#paint6_linear_60_5676)"/>
<path d="M51.8882 40.6249C51.6446 41.0391 51.4375 41.441 51.4375 41.5019C51.4375 41.5628 52.1805 42.0378 53.0818 42.5494L54.7262 43.4751L55.1646 42.7321C55.4204 42.318 55.6397 41.9404 55.664 41.8917C55.7006 41.8186 55.055 41.4288 52.8869 40.1743L52.3388 39.8454L51.8882 40.6249Z" fill="url(#paint7_linear_60_5676)"/>
<path d="M48.2715 45.3874L47.6016 46.0573L48.9779 47.4337L50.3421 48.7979L51.0364 48.0914L51.7428 47.3971L50.403 46.0573C49.6722 45.3265 49.0388 44.7175 49.0023 44.7175C48.9657 44.7175 48.6369 45.022 48.2715 45.3874Z" fill="url(#paint8_linear_60_5676)"/>
<path d="M43.5836 48.9319C43.1816 49.1755 42.8406 49.3825 42.8284 49.3947C42.8162 49.4069 43.2425 50.1499 43.7663 51.0512C44.3387 52.0378 44.7894 52.6834 44.8868 52.659C44.9721 52.6346 45.3619 52.4276 45.7394 52.1962L46.4337 51.7698L45.4958 50.1377C44.9843 49.2364 44.5092 48.4934 44.4362 48.4934C44.3753 48.4934 43.9855 48.6883 43.5836 48.9319Z" fill="url(#paint9_linear_60_5676)"/>
<path d="M38.1019 51.1729C37.6025 51.319 37.3711 51.4408 37.3833 51.5748C37.3954 51.6723 37.6025 52.5249 37.8583 53.4627L38.3211 55.168L39.1494 54.9365C39.6122 54.8147 40.0142 54.7051 40.0507 54.7051C40.1725 54.7051 40.1116 54.3641 39.661 52.6588C39.1616 50.7344 39.259 50.8318 38.1019 51.1729Z" fill="url(#paint10_linear_60_5676)"/>
<defs>
<linearGradient id="paint0_linear_60_5676" x1="36.8388" y1="4.09714" x2="42.3331" y2="7.75092" gradientUnits="userSpaceOnUse">
<stop stop-color="#D41700"/>
<stop offset="1" stop-color="#7F0011"/>
</linearGradient>
<linearGradient id="paint1_linear_60_5676" x1="42.1223" y1="6.49871" x2="48.044" y2="11.5127" gradientUnits="userSpaceOnUse">
<stop stop-color="#D41700"/>
<stop offset="1" stop-color="#7F0011"/>
</linearGradient>
<linearGradient id="paint2_linear_60_5676" x1="46.7741" y1="10.5179" x2="52.5024" y2="16.5369" gradientUnits="userSpaceOnUse">
<stop stop-color="#D41700"/>
<stop offset="1" stop-color="#7F0011"/>
</linearGradient>
<linearGradient id="paint3_linear_60_5676" x1="50.5857" y1="15.9015" x2="55.3208" y2="21.9287" gradientUnits="userSpaceOnUse">
<stop stop-color="#D41700"/>
<stop offset="1" stop-color="#7F0011"/>
</linearGradient>
<linearGradient id="paint4_linear_60_5676" x1="53.0418" y1="22.0357" x2="56.3824" y2="27.4912" gradientUnits="userSpaceOnUse">
<stop stop-color="#D41700"/>
<stop offset="1" stop-color="#7F0011"/>
</linearGradient>
<linearGradient id="paint5_linear_60_5676" x1="54.0728" y1="28.647" x2="56.2182" y2="33.0894" gradientUnits="userSpaceOnUse">
<stop stop-color="#D41700"/>
<stop offset="1" stop-color="#7F0011"/>
</linearGradient>
<linearGradient id="paint6_linear_60_5676" x1="53.0439" y1="34.5489" x2="56.6115" y2="40.1045" gradientUnits="userSpaceOnUse">
<stop stop-color="#D41700"/>
<stop offset="1" stop-color="#7F0011"/>
</linearGradient>
<linearGradient id="paint7_linear_60_5676" x1="50.5927" y1="40.0857" x2="55.6064" y2="46.1319" gradientUnits="userSpaceOnUse">
<stop stop-color="#D41700"/>
<stop offset="1" stop-color="#7F0011"/>
</linearGradient>
<linearGradient id="paint8_linear_60_5676" x1="46.7741" y1="44.9877" x2="52.5024" y2="51.0066" gradientUnits="userSpaceOnUse">
<stop stop-color="#D41700"/>
<stop offset="1" stop-color="#7F0011"/>
</linearGradient>
<linearGradient id="paint9_linear_60_5676" x1="42.1077" y1="48.7693" x2="47.9286" y2="53.9845" gradientUnits="userSpaceOnUse">
<stop stop-color="#D41700"/>
<stop offset="1" stop-color="#7F0011"/>
</linearGradient>
<linearGradient id="paint10_linear_60_5676" x1="36.8388" y1="51.256" x2="42.2935" y2="54.9261" gradientUnits="userSpaceOnUse">
<stop stop-color="#D41700"/>
<stop offset="1" stop-color="#7F0011"/>
</linearGradient>
</defs>
</svg>
