<svg width="40" height="51" viewBox="0 0 40 51" fill="none" xmlns="http://www.w3.org/2000/svg">
<path d="M0.436635 39.6824L6.25837 36.3276L19.6411 44.0415L27.1948 39.6752L13.8266 31.9468L19.7066 28.6211L38.8528 39.6752L19.6411 50.7728L0.429356 39.6752L0.436635 39.6824ZM39.2967 32.2015V38.8965L20.085 27.8134V22.8867L25.9067 19.5247V24.4367L39.2967 32.1724V32.2015ZM39.2967 11.8254V31.0663L33.475 27.7042V15.1875L39.2967 11.8254ZM38.8601 11.0977L33.0384 14.4597L19.6484 6.73139L12.0947 11.0977L25.4701 18.8333L19.5902 22.159L0.436635 11.0904L19.6411 0L38.8601 11.0904V11.0977ZM0 18.5786V11.8254L19.2117 22.9231V27.8497L13.39 31.2118V26.2851L0 18.5568V18.5786ZM0 19.5756L5.82174 23.1632V35.5999L0 38.9547V19.5538V19.5756Z" fill="url(#paint0_linear_60_4300)"/>
<defs>
<linearGradient id="paint0_linear_60_4300" x1="-7.85207" y1="47.4108" x2="61.7978" y2="-8.39786" gradientUnits="userSpaceOnUse">
<stop stop-color="#D41700"/>
<stop offset="1" stop-color="#7F0011"/>
</linearGradient>
</defs>
</svg>
