<svg width="61" height="61" viewBox="0 0 61 61" fill="none" xmlns="http://www.w3.org/2000/svg">
<path d="M39.5131 0.709625C35.8791 1.13028 32.2101 2.77784 29.4057 5.25502C24.7552 9.36809 22.4416 15.5143 23.2478 21.6138C23.4699 23.2146 23.7853 24.4298 24.4397 26.1942C24.8837 27.3744 24.9889 27.8184 25.0473 28.6481C25.1174 29.9684 24.9772 30.6695 24.1008 33.2402C23.575 34.806 23.3881 35.5187 23.3881 36.0095C23.3764 36.6405 23.4114 36.7106 23.8204 37.1196C24.2294 37.5285 24.2995 37.5636 24.9305 37.5519C25.4212 37.5519 26.1457 37.3649 27.6998 36.8391C30.2938 35.9628 30.9832 35.8225 32.2919 35.8927C33.1215 35.9511 33.5655 36.0562 34.7457 36.5003C36.5101 37.1546 37.7253 37.4701 39.3262 37.6921C42.2123 38.0777 45.2971 37.7389 48.1132 36.734C50.2164 35.9861 52.9741 34.2801 54.4931 32.7962C55.1825 32.1185 55.2993 31.6277 54.867 31.1954C54.4347 30.763 54.0491 30.8915 52.9273 31.8497C52.3548 32.3405 51.5018 32.9948 51.0227 33.3103C49.6556 34.2334 47.0382 35.4253 47.0382 35.1331C47.0498 34.6541 47.2251 34.4321 47.7977 34.175C48.4287 33.9062 48.6857 33.6024 49.4102 32.3405C49.7023 31.838 49.7257 31.6978 49.7257 30.4475C49.7257 29.7114 49.6789 28.9752 49.6205 28.8116C49.5037 28.5195 47.9496 27.3043 47.4471 27.1057C47.2719 27.0356 46.8979 27.0472 46.489 27.1057C45.5308 27.2692 45.5659 27.2809 45.2153 26.6383C44.9933 26.2176 44.7713 26.0073 44.4208 25.8437C43.4977 25.4114 42.2941 25.0258 41.4411 24.8972C40.9737 24.8271 40.4713 24.6869 40.3427 24.5934C39.9455 24.3247 39.3262 24.3831 38.6601 24.7687C37.8773 25.2244 37.6903 25.4932 37.6903 26.241C37.6903 26.7317 37.6202 26.9538 37.293 27.4212C36.7555 28.1924 36.7321 28.3092 36.8607 29.5478C36.9541 30.3891 37.0593 30.7864 37.3631 31.3823C37.8889 32.4106 38.3096 32.9013 38.8354 33.0649C39.0691 33.1467 39.3028 33.2519 39.3612 33.2869C39.408 33.3337 39.5365 33.9647 39.6533 34.6774C39.8403 35.7875 39.8403 35.9861 39.7001 35.9861C39.1626 35.9861 36.9775 35.4253 35.7156 34.9696C33.7642 34.2568 33.1566 34.1166 31.9063 34.1166C30.5625 34.1166 29.6745 34.3152 27.2557 35.1215C26.1807 35.4954 25.2693 35.7524 25.2343 35.7174C25.1875 35.6706 25.4563 34.7592 25.8185 33.6842C26.6364 31.2304 26.8234 30.3774 26.8117 28.9752C26.8117 27.7483 26.6598 27.1173 25.9003 25.0258C25.1291 22.8991 24.9071 21.6605 24.9071 19.2768C24.9071 17.01 25.059 15.97 25.6783 14.0303L26.0288 12.9203L26.3093 13.6447L26.578 14.3692L26.356 15.0119C26.2275 15.3741 26.0288 16.2271 25.9003 16.9282L25.6666 18.1901L25.9587 19.3469C26.2976 20.679 26.3443 20.7491 28.097 22.1513C29.2305 23.0627 29.2655 23.0978 30.0484 24.5584C30.9365 26.2293 30.9949 26.276 32.3737 26.5214C32.8411 26.6032 33.5772 26.8603 34.0914 27.1173C34.5938 27.3744 35.1547 27.5731 35.3416 27.5731C35.8791 27.5731 36.3582 27.094 36.6387 26.241C36.9425 25.3296 36.884 25.0491 36.2297 24.2546C35.5637 23.4366 35.3884 23.1445 35.2949 22.6888L35.2131 22.3149H36.2531C37.4332 22.3149 37.6786 22.198 38.0408 21.4969C38.1694 21.2399 38.4264 20.9594 38.6134 20.8543C39.034 20.6439 39.408 20.1882 39.5014 19.7676C39.5482 19.5105 39.7702 19.3469 40.5648 18.9263C42.0137 18.1784 42.224 17.6409 41.4995 16.4374C41.2775 16.0752 41.1373 15.7597 41.1724 15.7246C41.2191 15.7013 41.8384 15.4909 42.5512 15.2572C44.152 14.7314 44.374 14.5328 44.4441 13.5396C44.4909 12.9086 44.4441 12.7099 44.0001 11.6466C43.7197 10.9923 43.4159 10.373 43.3341 10.2561C43.1121 9.99907 41.7216 9.34472 41.3944 9.34472C41.2425 9.34472 40.8218 9.53167 40.4596 9.76537C39.9221 10.1042 39.63 10.408 39.0808 11.2377C38.368 12.2893 38.368 12.2893 37.959 12.2309C37.7253 12.1841 37.5384 12.1491 37.515 12.1257C37.1528 11.5999 36.6387 10.4431 36.6387 10.1276C36.6387 9.75368 36.7438 9.64852 38.2044 8.49172C40.0389 7.05449 40.0506 7.01943 39.6767 5.61726C39.2444 4.01643 38.9873 3.86453 37.1995 4.15665C36.2764 4.29687 36.0077 4.39035 35.4234 4.79932L34.734 5.26671L33.9979 4.95122C33.2968 4.63573 33.2734 4.61236 33.5071 4.44877C34.0563 4.06317 36.1596 3.23355 37.3865 2.91806C38.0993 2.74279 39.2093 2.52077 39.8403 2.43898C41.0789 2.28708 43.7313 2.3455 44.2338 2.54414C44.4558 2.62594 44.596 2.84795 44.8064 3.43219C44.9583 3.85284 45.1803 4.33192 45.2971 4.48383C45.5074 4.75257 45.5074 4.77595 45.2621 5.5004C45.0284 6.17813 45.0284 6.31834 45.1452 7.55694C45.2153 8.2814 45.3322 8.98249 45.4023 9.11102C45.5542 9.39145 46.0333 9.64852 46.6993 9.80042C47.5172 9.98738 47.7977 9.78874 48.7792 8.37487C49.2466 7.69715 49.6906 7.08954 49.7607 7.03112C49.8425 6.97269 50.2982 6.82079 50.7773 6.70394C51.2564 6.5871 51.7822 6.36508 51.9575 6.22486L52.2613 5.9678L53.2545 6.8909C57.9985 11.2844 59.7629 18.1551 57.7648 24.4065C57.3559 25.6918 56.83 26.8836 56.2224 27.8652C55.9887 28.2508 55.8018 28.7065 55.8018 28.8701C55.8018 29.653 56.6781 29.9918 57.2624 29.4426C57.6597 29.0687 58.9801 26.3695 59.4124 25.0608C61.0132 20.1766 60.5575 15.0235 58.1387 10.408C55.755 5.89769 51.3382 2.43898 46.3137 1.15365C44.2805 0.639515 41.6047 0.464245 39.5131 0.709625ZM47.8911 3.5023C49.3284 4.06317 50.789 4.86943 50.5436 4.95122C50.4501 4.97459 50.0528 5.09144 49.6672 5.1966C48.6857 5.46535 48.5338 5.59388 47.7159 6.80911L46.9797 7.88411L46.8863 7.15965C46.8045 6.54036 46.8278 6.33003 47.0382 5.75747C47.3887 4.83437 47.3653 4.4254 46.933 3.75937C46.5708 3.19849 46.5123 3.0349 46.6409 3.0349C46.6759 3.0349 47.2368 3.24523 47.8911 3.5023ZM33.1799 6.49362C34.921 7.25313 35.0145 7.25313 36.0544 6.49362C37.071 5.75747 38.0292 5.64062 38.0408 6.25992C38.0408 6.33003 37.4683 6.84416 36.7672 7.40503C36.0661 7.95422 35.3416 8.5852 35.1664 8.79553C34.8626 9.15776 34.8626 9.2045 34.921 10.186C34.9794 11.1559 35.0145 11.2493 35.6688 12.3945C36.4517 13.785 36.6036 13.8784 38.0876 13.9836C39.2561 14.0654 39.3495 13.9953 40.3311 12.5113C41.1139 11.3195 41.4061 11.0858 41.78 11.3428C42.0137 11.4947 42.7148 12.932 42.7148 13.2474C42.7148 13.3176 42.1188 13.5629 41.4061 13.785C39.9104 14.2407 39.5365 14.5094 39.3262 15.304C39.2093 15.7246 39.221 15.8882 39.3846 16.3089C39.4898 16.5776 39.6533 16.8697 39.7468 16.9399C40.0156 17.1736 39.9571 17.2553 39.2444 17.6526C38.3563 18.1434 38.0642 18.4121 37.9824 18.8328C37.924 19.0665 37.7253 19.3002 37.3982 19.5339C37.1177 19.7325 36.8256 20.048 36.7438 20.235C36.6153 20.5622 36.6036 20.5622 35.5637 20.5622C34.4302 20.5622 34.0213 20.7024 33.6123 21.2165C33.3085 21.6138 33.3085 22.0111 33.6123 23.1679C33.8109 23.8923 33.9862 24.2429 34.4302 24.8038C34.7457 25.1893 34.9794 25.5282 34.956 25.5516C34.9327 25.5866 34.6289 25.4581 34.3017 25.2945C33.9628 25.1192 33.3319 24.9206 32.9112 24.8388L32.14 24.6986L31.3688 23.2964C30.6093 21.9176 30.5976 21.8942 29.2655 20.8426C28.0854 19.8961 27.9101 19.7092 27.7348 19.2067C27.4544 18.3771 27.4778 17.8279 27.8867 16.2855C28.4009 14.3225 28.4125 14.1822 28.062 13.3176C27.875 12.8502 27.7582 12.3477 27.7582 11.9738C27.7582 11.6349 27.6998 11.0858 27.6413 10.7352C27.5245 10.1393 27.5362 10.0925 27.9218 9.51999C28.7981 8.1996 31.1234 5.83927 31.5441 5.83927C31.6259 5.83927 32.362 6.13139 33.1799 6.49362ZM40.9036 26.5682C41.4178 26.6733 42.2357 26.8836 42.7148 27.0589C43.5794 27.351 43.6028 27.3744 44.0352 28.1106C44.3039 28.5546 44.596 28.9168 44.7713 28.9752C44.9466 29.0453 45.3906 29.0337 45.9865 28.9519L46.933 28.8233L47.4238 29.1739L47.9145 29.5361L47.9496 30.4475C47.9729 31.3005 47.9496 31.4174 47.6224 31.9198C47.3653 32.3405 47.1083 32.5625 46.5708 32.8312C45.7996 33.2168 45.6126 33.4505 45.414 34.2451C45.3439 34.5489 45.192 35.028 45.0634 35.3084C44.818 35.9043 44.7713 35.916 42.7031 36.0679L41.6865 36.138L41.6164 35.7992C41.5813 35.6122 41.4411 34.7826 41.3126 33.9413C41.0322 32.2119 40.8686 31.9198 39.9221 31.6043C39.4547 31.4524 39.3379 31.3356 39.0224 30.7513C38.7419 30.2606 38.6368 29.8983 38.6134 29.3842C38.5783 28.7532 38.6134 28.6247 38.9289 28.1573C39.186 27.7951 39.3145 27.4212 39.3729 26.9421C39.4547 26.3228 39.4898 26.2644 39.7118 26.3228C39.852 26.3578 40.3895 26.463 40.9036 26.5682Z" fill="url(#paint0_linear_60_5698)"/>
<path d="M9.35412 11.6464C8.83998 11.7749 6.23427 13.0836 5.4397 13.6094C3.41822 14.9064 2.13289 16.6124 1.31495 19.0779C0.742395 20.7605 0.590492 21.8472 0.602177 24.0674C0.613862 26.4043 0.894298 28.0753 1.64213 30.272C2.10952 31.5924 3.11442 33.8125 3.41822 34.1397C3.85056 34.6188 4.85546 34.2448 4.85546 33.6022C4.85546 33.462 4.62176 32.831 4.32964 32.2117C1.8174 26.825 1.65381 21.3448 3.88562 17.6173C4.56334 16.4956 5.52149 15.5141 5.68508 15.7711C5.75519 15.8646 6.26932 16.7059 6.85356 17.629C8.25574 19.8842 10.2538 22.7119 12.3337 25.3877L12.953 26.1823L12.5441 26.5212C11.9949 26.9652 11.3289 27.9818 11.025 28.8348C10.6628 29.828 10.6628 31.8261 11.0367 33.1698C11.3873 34.4201 12.4155 36.4416 13.3854 37.797C14.028 38.7085 18.3281 43.2071 21.1558 45.918C22.9786 47.6707 25.8414 49.3884 27.8162 49.9025C29.1482 50.2531 30.936 50.2531 31.9643 49.9025C32.9224 49.5637 33.939 48.956 34.4064 48.4302L34.7686 48.0213L36.8953 49.6338C39.1855 51.3748 42.3053 53.5248 44.1165 54.6232C44.7241 54.9854 45.2499 55.3126 45.2733 55.336C45.3785 55.4411 44.3736 56.3642 43.6491 56.8433C42.3521 57.6963 40.9499 58.1988 39.092 58.4792C34.4882 59.192 29.2417 57.5444 23.8784 53.7351C21.5765 52.0876 19.999 50.6737 15.5704 46.2802C10.7797 41.5245 9.4476 40.0756 7.75329 37.797C7.18074 37.0258 6.60818 36.278 6.46796 36.1378C5.8253 35.425 4.76198 36.2079 5.14758 37.1076C5.34622 37.5867 7.19242 40.0172 8.54786 41.5946C10.0085 43.2889 15.5704 48.9327 17.8139 51.0009C21.3077 54.2142 24.1237 56.2357 27.4072 57.8833C33.2963 60.8278 38.9167 61.2018 43.4972 58.9349C45.7641 57.8248 47.0728 56.3525 48.5801 53.2093C49.2578 51.8071 49.3162 51.6436 49.3162 50.884C49.3162 49.6571 49.0124 49.2131 47.3649 48.0213C45.8809 46.9579 45.4836 46.8528 45.063 47.3903C44.5956 47.9862 44.7942 48.3601 46.0679 49.2482C47.1662 50.0194 47.6219 50.4868 47.6219 50.849C47.6219 51.1061 46.6638 53.3145 46.395 53.665C46.2548 53.8637 46.1613 53.8286 44.9929 53.1042C42.504 51.5735 40.0619 49.8675 37.2575 47.7058L35.8203 46.6074L36.72 45.4389C37.795 44.0484 37.8417 44.0017 38.3208 44.0017C38.6129 44.0017 39.1154 44.2938 40.5409 45.3104C42.5274 46.7126 42.8312 46.8294 43.2752 46.3503C43.5556 46.0582 43.6024 45.6843 43.4154 45.3338C43.2986 45.1117 40.1203 42.8098 39.4426 42.471C38.87 42.1672 37.7716 42.1905 37.164 42.4943C36.5564 42.8098 36.276 43.1253 34.4298 45.5324C32.9925 47.4253 32.8523 47.5656 32.1629 47.9044C29.9077 49.0145 27.0333 48.3017 23.7966 45.8479C22.4061 44.8079 15.9093 38.2878 14.9979 37.0375C14.6473 36.5584 14.18 35.8457 13.9463 35.4601C12.287 32.6908 12.065 29.9448 13.362 28.2388C13.5373 28.0168 14.5422 27.1521 15.6055 26.3459C16.6688 25.528 17.6854 24.7217 17.8607 24.5581C18.7254 23.7519 18.959 22.3614 18.3982 21.3682C18.2346 21.076 16.7156 18.9027 15.0329 16.554C11.621 11.7749 11.5392 11.6931 10.2655 11.623C9.89162 11.5996 9.48265 11.6113 9.35412 11.6464ZM10.4875 13.4458C10.6394 13.5043 12.1351 15.5024 13.8528 17.8978C16.3767 21.4383 16.9376 22.3029 16.9376 22.6068C16.9376 23.0975 16.8908 23.1443 15.5003 24.2076L14.3435 25.1073L13.4204 23.9155C11.4691 21.4032 9.73972 18.9377 8.18563 16.4605L7.07557 14.6844L7.44949 14.4507C8.02205 14.1002 9.78646 13.329 10.0202 13.3173C10.1253 13.3173 10.3356 13.3757 10.4875 13.4458Z" fill="#878787"/>
<defs>
<linearGradient id="paint0_linear_60_5698" x1="15.6442" y1="3.06656" x2="67.9663" y2="57.2572" gradientUnits="userSpaceOnUse">
<stop stop-color="#D41700"/>
<stop offset="1" stop-color="#7F0011"/>
</linearGradient>
</defs>
</svg>
